<svg width="51" height="45" viewBox="0 0 51 45" fill="none" xmlns="http://www.w3.org/2000/svg">
<rect width="51" height="45" rx="8" fill="#B50606"/>
<path d="M35.456 21.1538C35.579 21.8128 35.646 22.5018 35.646 23.2208C35.646 28.8448 31.882 32.8438 26.197 32.8438C24.9042 32.8442 23.6239 32.5898 22.4294 32.0952C21.2349 31.6007 20.1496 30.8756 19.2354 29.9614C18.3212 29.0472 17.5961 27.9619 17.1016 26.7674C16.607 25.5729 16.3526 24.2926 16.353 22.9998C16.3526 21.7069 16.607 20.4267 17.1016 19.2322C17.5961 18.0377 18.3212 16.9523 19.2354 16.0381C20.1496 15.1239 21.2349 14.3989 22.4294 13.9043C23.6239 13.4097 24.9042 13.1554 26.197 13.1558C28.855 13.1558 31.076 14.1338 32.78 15.7218L30.005 18.4968V18.4898C28.972 17.5058 27.661 17.0008 26.197 17.0008C22.949 17.0008 20.309 19.7448 20.309 22.9938C20.309 26.2418 22.949 28.9918 26.197 28.9918C29.144 28.9918 31.15 27.3068 31.562 24.9928H26.197V21.1538H35.457H35.456Z" fill="white"/>
</svg>
