<svg width="25" height="24" viewBox="0 0 25 24" fill="none" xmlns="http://www.w3.org/2000/svg">
<path d="M2.4541 3H3.84887C4.3621 3 4.80992 3.343 4.94275 3.835L5.32818 5.272M5.32818 5.272C10.9341 5.11589 16.5346 5.73515 21.9688 7.112C21.1396 9.566 20.1544 11.95 19.0263 14.25H7.73733M5.32818 5.272L7.73733 14.25M7.73733 14.25C6.93664 14.25 6.16875 14.5661 5.60258 15.1287C5.03641 15.6913 4.71834 16.4544 4.71834 17.25H20.568M6.22784 20.25C6.22784 20.4489 6.14832 20.6397 6.00678 20.7803C5.86523 20.921 5.67326 21 5.47309 21C5.27292 21 5.08094 20.921 4.9394 20.7803C4.79786 20.6397 4.71834 20.4489 4.71834 20.25C4.71834 20.0511 4.79786 19.8603 4.9394 19.7197C5.08094 19.579 5.27292 19.5 5.47309 19.5C5.67326 19.5 5.86523 19.579 6.00678 19.7197C6.14832 19.8603 6.22784 20.0511 6.22784 20.25ZM19.0585 20.25C19.0585 20.4489 18.979 20.6397 18.8375 20.7803C18.6959 20.921 18.504 21 18.3038 21C18.1036 21 17.9116 20.921 17.7701 20.7803C17.6286 20.6397 17.549 20.4489 17.549 20.25C17.549 20.0511 17.6286 19.8603 17.7701 19.7197C17.9116 19.579 18.1036 19.5 18.3038 19.5C18.504 19.5 18.6959 19.579 18.8375 19.7197C18.979 19.8603 19.0585 20.0511 19.0585 20.25Z" stroke="#3B1B80" stroke-width="1.5" stroke-linecap="round" stroke-linejoin="round"/>
</svg>
