<svg width="25" height="24" viewBox="0 0 25 24" fill="none" xmlns="http://www.w3.org/2000/svg">
<path d="M3.51029 19.5H20.8695M3.51029 19.5C3.21004 19.5 2.92208 19.3815 2.70976 19.1705C2.49745 18.9595 2.37817 18.6734 2.37817 18.375M3.51029 19.5H5.01979C5.64472 19.5 6.15191 18.996 6.15191 18.375M20.8695 19.5C21.4944 19.5 22.0016 18.996 22.0016 18.375M20.8695 19.5H19.36C19.0597 19.5 18.7718 19.3815 18.5594 19.1705C18.3471 18.9595 18.2279 18.6734 18.2279 18.375M2.37817 18.375V5.625M2.37817 18.375V16.875C2.37817 16.254 2.88536 15.75 3.51029 15.75M6.15191 18.375V13.125M6.15191 18.375C6.15191 18.996 6.6591 19.5 7.28403 19.5H17.0957C17.7207 19.5 18.2279 18.996 18.2279 18.375M6.15191 18.375V16.875C6.15191 16.254 5.64472 15.75 5.01979 15.75M2.37817 5.625C2.37817 5.004 2.88536 4.5 3.51029 4.5M2.37817 5.625V7.125C2.37817 7.746 2.88536 8.25 3.51029 8.25M3.51029 15.75C2.88536 15.75 2.37817 15.246 2.37817 14.625V13.125C2.37817 12.504 2.88536 12 3.51029 12M3.51029 15.75H5.01979M22.0016 18.375V5.625M22.0016 18.375V16.875C22.0016 16.254 21.4944 15.75 20.8695 15.75M22.0016 5.625C22.0016 5.004 21.4944 4.5 20.8695 4.5M22.0016 5.625V7.125C22.0016 7.746 21.4944 8.25 20.8695 8.25M20.8695 15.75C21.4944 15.75 22.0016 15.246 22.0016 14.625V13.125C22.0016 12.504 21.4944 12 20.8695 12M20.8695 15.75H19.36M18.2279 18.375V13.125M18.2279 18.375V16.875C18.2279 16.254 18.735 15.75 19.36 15.75M20.8695 4.5H3.51029M20.8695 4.5H19.36C18.735 4.5 18.2279 5.004 18.2279 5.625M3.51029 4.5H5.01979C5.64472 4.5 6.15191 5.004 6.15191 5.625M18.2279 5.625C18.2279 5.004 17.7207 4.5 17.0957 4.5H7.28403C6.6591 4.5 6.15191 5.004 6.15191 5.625M18.2279 5.625V7.125C18.2279 7.42337 18.3471 7.70952 18.5594 7.9205C18.7718 8.13147 19.0597 8.25 19.36 8.25M18.2279 5.625V10.875M20.8695 8.25H19.36M20.8695 8.25C21.4944 8.25 22.0016 8.754 22.0016 9.375V10.875C22.0016 11.496 21.4944 12 20.8695 12M6.15191 5.625V7.125C6.15191 7.746 5.64472 8.25 5.01979 8.25M6.15191 5.625V10.875M3.51029 8.25H5.01979M3.51029 8.25C2.88536 8.25 2.37817 8.754 2.37817 9.375V10.875C2.37817 11.496 2.88536 12 3.51029 12M5.01979 8.25C5.64472 8.25 6.15191 8.754 6.15191 9.375V10.875M3.51029 12H5.01979M6.15191 10.875C6.15191 11.1734 6.27118 11.4595 6.4835 11.6705C6.69581 11.8815 6.98377 12 7.28403 12M6.15191 10.875C6.15191 11.496 5.64472 12 5.01979 12M19.36 8.25C18.735 8.25 18.2279 8.754 18.2279 9.375V10.875M18.2279 10.875C18.2279 11.496 17.7207 12 17.0957 12M18.2279 10.875C18.2279 11.496 18.735 12 19.36 12M20.8695 12H19.36M7.28403 12H17.0957M7.28403 12C6.6591 12 6.15191 12.504 6.15191 13.125M17.0957 12C17.7207 12 18.2279 12.504 18.2279 13.125M6.15191 13.125V14.625C6.15191 15.246 5.64472 15.75 5.01979 15.75M6.15191 13.125C6.15191 12.504 5.64472 12 5.01979 12M19.36 12C18.735 12 18.2279 12.504 18.2279 13.125M18.2279 13.125V14.625C18.2279 15.246 18.735 15.75 19.36 15.75" stroke="#3B1B80" stroke-width="1.5" stroke-linecap="round" stroke-linejoin="round"/>
</svg>
