<svg width="25" height="24" viewBox="0 0 25 24" fill="none" xmlns="http://www.w3.org/2000/svg">
<path d="M16.4952 10.5V6C16.4952 5.00544 16.0976 4.05161 15.3899 3.34835C14.6822 2.64509 13.7223 2.25 12.7214 2.25C11.7206 2.25 10.7607 2.64509 10.053 3.34835C9.3453 4.05161 8.94771 5.00544 8.94771 6V10.5M20.3756 8.507L21.6466 20.507C21.717 21.172 21.1937 21.75 20.5205 21.75H4.9224C4.76361 21.7502 4.60655 21.7171 4.46145 21.6531C4.31634 21.589 4.18642 21.4953 4.08012 21.3781C3.97383 21.2608 3.89354 21.1227 3.84447 20.9726C3.7954 20.8226 3.77865 20.6639 3.79531 20.507L5.06731 8.507C5.09665 8.23056 5.22794 7.9747 5.43588 7.78876C5.64381 7.60281 5.91366 7.49995 6.19339 7.5H19.2495C19.8291 7.5 20.3152 7.935 20.3756 8.507ZM9.32509 10.5C9.32509 10.5995 9.28533 10.6948 9.21456 10.7652C9.14378 10.8355 9.0478 10.875 8.94771 10.875C8.84763 10.875 8.75164 10.8355 8.68087 10.7652C8.6101 10.6948 8.57034 10.5995 8.57034 10.5C8.57034 10.4005 8.6101 10.3052 8.68087 10.2348C8.75164 10.1645 8.84763 10.125 8.94771 10.125C9.0478 10.125 9.14378 10.1645 9.21456 10.2348C9.28533 10.3052 9.32509 10.4005 9.32509 10.5ZM16.8726 10.5C16.8726 10.5995 16.8328 10.6948 16.762 10.7652C16.6913 10.8355 16.5953 10.875 16.4952 10.875C16.3951 10.875 16.2991 10.8355 16.2283 10.7652C16.1576 10.6948 16.1178 10.5995 16.1178 10.5C16.1178 10.4005 16.1576 10.3052 16.2283 10.2348C16.2991 10.1645 16.3951 10.125 16.4952 10.125C16.5953 10.125 16.6913 10.1645 16.762 10.2348C16.8328 10.3052 16.8726 10.4005 16.8726 10.5Z" stroke="#3B1B80" stroke-width="1.5" stroke-linecap="round" stroke-linejoin="round"/>
</svg>
