<svg width="25" height="24" viewBox="0 0 25 24" fill="none" xmlns="http://www.w3.org/2000/svg">
<path d="M13.5648 3.03004V3.59804C13.5648 3.93204 13.7137 4.24804 13.9724 4.46204L15.0471 5.35204C15.4919 5.72104 15.5855 6.36204 15.2645 6.84204L14.7513 7.60804C14.4718 8.02425 14.0607 8.33601 13.5829 8.49404L13.439 8.54204C13.2766 8.59599 13.129 8.6864 13.0074 8.80627C12.8859 8.92613 12.7939 9.07221 12.7384 9.23317C12.6829 9.39413 12.6655 9.56563 12.6875 9.73435C12.7096 9.90307 12.7704 10.0645 12.8654 10.206C13.2367 10.761 13.0355 11.513 12.4357 11.811L9.79107 13.125L10.2168 14.184C10.3026 14.3991 10.307 14.6379 10.2292 14.8559C10.1514 15.074 9.99666 15.2567 9.79365 15.37C9.59063 15.4833 9.35315 15.5196 9.12524 15.4722C8.89733 15.4248 8.69448 15.2968 8.55429 15.112L7.871 14.206C7.75519 14.0527 7.60187 13.9313 7.42558 13.8534C7.24929 13.7754 7.05589 13.7436 6.86372 13.7608C6.67156 13.7781 6.48702 13.8438 6.32762 13.9518C6.16822 14.0598 6.03924 14.2066 5.95293 14.378L5.26259 15.75L4.64672 15.903M13.5648 3.03004C11.9739 2.89737 10.3759 3.18597 8.93282 3.86469C7.48975 4.5434 6.25287 5.58912 5.34752 6.89587C4.44217 8.20262 3.90051 9.72396 3.77744 11.3057C3.65437 12.8875 3.95426 14.4735 4.64672 15.903M13.5648 3.03004C15.1424 3.16078 16.658 3.70116 17.9604 4.5954C19.2629 5.48964 20.3067 6.7075 20.9878 8.12757C21.669 9.54765 21.9636 11.1203 21.8424 12.6889C21.7213 14.2574 21.1885 15.7669 20.2971 17.067L20.119 16.538C19.9686 16.0901 19.6802 15.7004 19.2946 15.4244C18.909 15.1484 18.4458 14.9999 17.9705 15H17.3385L17.0125 14.676C16.8487 14.513 16.6483 14.391 16.4277 14.3201C16.2072 14.2492 15.9728 14.2315 15.744 14.2683C15.5151 14.3051 15.2984 14.3955 15.1116 14.5319C14.9248 14.6684 14.7734 14.847 14.6698 15.053L14.6335 15.126C14.5347 15.3227 14.3958 15.4967 14.2257 15.6372C14.0556 15.7777 13.8579 15.8815 13.6453 15.942L12.649 16.224C12.0956 16.381 11.7494 16.926 11.844 17.491L11.9174 17.929C11.998 18.403 12.4105 18.75 12.8936 18.75C13.7449 18.75 14.5017 19.292 14.7704 20.095L14.9868 20.738M4.64672 15.903C5.5488 17.7668 7.06932 19.265 8.95249 20.1456C10.8357 21.0262 12.9666 21.2354 14.9868 20.738M14.9868 20.738C17.1503 20.2047 19.0404 18.8982 20.2961 17.068M16.5838 9.00004C16.5838 9.89604 16.1883 10.7 15.5614 11.25" stroke="#3B1B80" stroke-width="1.5" stroke-linecap="round" stroke-linejoin="round"/>
</svg>
